<svg width="500" height="500" viewBox="0 0 500 500" fill="none" xmlns="http://www.w3.org/2000/svg">
<path d="M218.616 251.08H248.136V318.04C239.496 324.92 229.416 330.2 217.896 333.88C206.376 337.56 194.536 339.4 182.376 339.4C165.256 339.4 149.816 335.72 136.056 328.36C122.296 320.84 111.496 310.52 103.656 297.4C95.8159 284.28 91.8959 269.48 91.8959 253C91.8959 236.52 95.8159 221.72 103.656 208.6C111.496 195.48 122.296 185.24 136.056 177.88C149.976 170.36 165.576 166.6 182.856 166.6C196.936 166.6 209.736 168.92 221.256 173.56C232.776 178.2 242.456 185 250.296 193.96L230.616 213.16C217.816 200.36 202.376 193.96 184.296 193.96C172.456 193.96 161.896 196.44 152.616 201.4C143.496 206.36 136.296 213.32 131.016 222.28C125.896 231.24 123.336 241.48 123.336 253C123.336 264.2 125.896 274.28 131.016 283.24C136.296 292.2 143.496 299.24 152.616 304.36C161.896 309.48 172.376 312.04 184.056 312.04C197.176 312.04 208.696 309.16 218.616 303.4V251.08ZM341.367 339.4C328.407 339.4 315.847 337.56 303.687 333.88C291.687 330.2 282.167 325.32 275.127 319.24L285.927 295C292.807 300.44 301.207 304.92 311.127 308.44C321.207 311.8 331.287 313.48 341.367 313.48C353.847 313.48 363.127 311.48 369.207 307.48C375.447 303.48 378.567 298.2 378.567 291.64C378.567 286.84 376.807 282.92 373.287 279.88C369.927 276.68 365.607 274.2 360.327 272.44C355.047 270.68 347.847 268.68 338.727 266.44C325.927 263.4 315.527 260.36 307.527 257.32C299.687 254.28 292.887 249.56 287.127 243.16C281.527 236.6 278.727 227.8 278.727 216.76C278.727 207.48 281.207 199.08 286.167 191.56C291.287 183.88 298.887 177.8 308.967 173.32C319.207 168.84 331.687 166.6 346.407 166.6C356.647 166.6 366.727 167.88 376.647 170.44C386.567 173 395.127 176.68 402.327 181.48L392.487 205.72C385.127 201.4 377.447 198.12 369.447 195.88C361.447 193.64 353.687 192.52 346.167 192.52C333.847 192.52 324.647 194.6 318.567 198.76C312.647 202.92 309.687 208.44 309.687 215.32C309.687 220.12 311.367 224.04 314.727 227.08C318.247 230.12 322.647 232.52 327.927 234.28C333.207 236.04 340.407 238.04 349.527 240.28C362.007 243.16 372.247 246.2 380.247 249.4C388.247 252.44 395.047 257.16 400.647 263.56C406.407 269.96 409.287 278.6 409.287 289.48C409.287 298.76 406.727 307.16 401.607 314.68C396.647 322.2 389.047 328.2 378.807 332.68C368.567 337.16 356.087 339.4 341.367 339.4Z" fill="url(#paint0_linear)"/>
<path d="M492 253C492 386.653 383.653 495 250 495C116.347 495 8 386.653 8 253C8 119.347 116.347 11 250 11C383.653 11 492 119.347 492 253ZM28.7847 253C28.7847 375.174 127.826 474.215 250 474.215C372.174 474.215 471.215 375.174 471.215 253C471.215 130.826 372.174 31.7847 250 31.7847C127.826 31.7847 28.7847 130.826 28.7847 253Z" fill="url(#paint1_linear)"/>
<defs>
<linearGradient id="paint0_linear" x1="249.5" y1="104" x2="249.5" y2="397" gradientUnits="userSpaceOnUse">
<stop stop-color="#00D2DF"/>
<stop offset="1" stop-color="#0074E1"/>
</linearGradient>
<linearGradient id="paint1_linear" x1="250" y1="11" x2="250" y2="495" gradientUnits="userSpaceOnUse">
<stop stop-color="#00D2DF"/>
<stop offset="1" stop-color="#0074E1"/>
</linearGradient>
</defs>
</svg>
